<svg width="160.0732239809988" height="264.72031250000003" viewBox="0 0 212.07566952339525 350.71910288096655" class="looka-1j8o68f"><defs id="SvgjsDefs1956"></defs><g id="SvgjsG1957" featurekey="symbolFeature-0" transform="matrix(1.937803932277376,0,0,1.937803932277376,8.782134527417274,-12.704238410846132)" fill="#ff7a8a"><g xmlns="http://www.w3.org/2000/svg"><g><path fill="none" stroke="#ff7a8a" stroke-width="1.1106" stroke-miterlimit="10" d="M93.858,50.333    c0,3.82-2.686,7.236-3.627,10.759c-0.975,3.646-0.386,7.942-2.232,11.134c-1.873,3.237-5.905,4.864-8.533,7.492    c-2.627,2.627-4.254,6.659-7.491,8.533c-3.191,1.846-7.488,1.257-11.134,2.231c-3.523,0.941-6.938,3.627-10.759,3.627    s-7.236-2.686-10.76-3.627c-3.646-0.975-7.941-0.386-11.133-2.232c-3.237-1.873-4.865-5.906-7.492-8.533    c-2.627-2.628-6.66-4.254-8.534-7.492c-1.846-3.191-1.257-7.488-2.231-11.133c-0.942-3.523-3.627-6.939-3.627-10.759    c0-3.82,2.686-7.236,3.627-10.76c0.975-3.646,0.385-7.941,2.232-11.133c1.874-3.237,5.907-4.865,8.534-7.492    s4.255-6.66,7.492-8.534c3.191-1.846,7.487-1.257,11.132-2.231c3.523-0.942,6.939-3.627,10.76-3.627s7.236,2.686,10.759,3.627    c3.646,0.975,7.942,0.385,11.135,2.232c3.237,1.874,4.864,5.906,7.491,8.534c2.628,2.627,6.66,4.255,8.533,7.492    c1.846,3.191,1.257,7.487,2.231,11.133C91.173,43.097,93.858,46.513,93.858,50.333z"></path></g><circle fill="none" stroke="#ff7a8a" stroke-width="1.167" stroke-miterlimit="10" cx="49.9" cy="50.149" r="34.523"></circle><g><g><path d="M26.088,67.665c0.444-0.257,1.007-0.106,1.266,0.341c0.251,0.442,0.102,1.008-0.344,1.263     c-0.44,0.258-1.004,0.103-1.261-0.338C25.495,68.486,25.647,67.92,26.088,67.665z"></path></g><g><path d="M31.394,73.31c0.362-0.363,0.945-0.364,1.311,0.001c0.357,0.362,0.359,0.947-0.005,1.309     c-0.359,0.363-0.943,0.359-1.306,0C31.033,74.256,31.034,73.67,31.394,73.31z"></path></g><g><path d="M37.98,77.388c0.256-0.444,0.818-0.596,1.267-0.338c0.439,0.258,0.592,0.822,0.333,1.266     c-0.253,0.443-0.818,0.591-1.262,0.338C37.876,78.396,37.725,77.829,37.98,77.388z"></path></g><g><path d="M45.397,79.623c0.132-0.496,0.636-0.787,1.136-0.654c0.491,0.135,0.785,0.641,0.65,1.136     c-0.129,0.494-0.638,0.783-1.131,0.653C45.558,80.623,45.265,80.115,45.397,79.623z"></path></g><g><path d="M53.14,79.862c-0.001-0.514,0.411-0.925,0.928-0.926c0.509,0.003,0.924,0.415,0.922,0.929     c0.003,0.511-0.413,0.922-0.924,0.924C53.554,80.786,53.14,80.372,53.14,79.862z"></path></g><g><path d="M60.681,78.089c-0.134-0.495,0.157-0.999,0.656-1.134c0.492-0.129,1,0.162,1.131,0.658     c0.135,0.493-0.16,0.997-0.653,1.132C61.319,78.875,60.812,78.582,60.681,78.089z"></path></g><g><path d="M67.506,74.425c-0.258-0.443-0.107-1.006,0.34-1.265c0.442-0.252,1.008-0.103,1.263,0.343     c0.258,0.441,0.104,1.004-0.338,1.262C68.326,75.019,67.761,74.867,67.506,74.425z"></path></g><g><path d="M73.15,69.119c-0.364-0.361-0.364-0.944,0-1.31c0.362-0.358,0.947-0.36,1.309,0.004c0.363,0.36,0.36,0.943,0,1.307     C74.096,69.48,73.511,69.48,73.15,69.119z"></path></g><g><path d="M77.229,62.533c-0.445-0.255-0.596-0.818-0.339-1.265c0.258-0.44,0.822-0.594,1.266-0.335     c0.444,0.254,0.592,0.817,0.338,1.262C78.235,62.638,77.671,62.789,77.229,62.533z"></path></g><g><path d="M79.464,55.116c-0.496-0.131-0.788-0.637-0.655-1.134c0.136-0.492,0.641-0.786,1.136-0.651     c0.495,0.13,0.783,0.637,0.653,1.131C80.463,54.956,79.957,55.249,79.464,55.116z"></path></g><g><path d="M79.703,47.373c-0.513,0.002-0.927-0.411-0.927-0.925c0.004-0.511,0.415-0.925,0.929-0.923     c0.512-0.002,0.921,0.412,0.924,0.923C80.627,46.96,80.214,47.374,79.703,47.373z"></path></g><g><path d="M77.93,39.832c-0.494,0.135-1.001-0.157-1.135-0.654c-0.128-0.495,0.162-1.001,0.658-1.132     c0.494-0.135,0.997,0.16,1.132,0.653C78.716,39.194,78.424,39.7,77.93,39.832z"></path></g><g><path d="M74.266,33.007c-0.442,0.259-1.008,0.107-1.266-0.338c-0.252-0.444-0.103-1.009,0.343-1.263     c0.442-0.258,1.005-0.104,1.263,0.337C74.859,32.187,74.708,32.752,74.266,33.007z"></path></g><g><path d="M68.96,27.363c-0.36,0.364-0.946,0.365-1.311,0.001c-0.358-0.364-0.36-0.948,0.004-1.309     c0.36-0.364,0.944-0.361,1.308-0.001C69.321,26.417,69.321,27.002,68.96,27.363z"></path></g><g><path d="M62.374,23.284c-0.254,0.445-0.819,0.597-1.266,0.34c-0.44-0.259-0.594-0.823-0.335-1.265     c0.254-0.445,0.818-0.593,1.263-0.339C62.479,22.277,62.63,22.842,62.374,23.284z"></path></g><g><path d="M54.957,21.049c-0.13,0.496-0.638,0.789-1.135,0.657c-0.492-0.136-0.786-0.641-0.651-1.135     c0.131-0.496,0.638-0.785,1.132-0.655C54.797,20.049,55.09,20.556,54.957,21.049z"></path></g><g><path d="M47.214,20.81c0.002,0.513-0.412,0.927-0.926,0.928c-0.511-0.004-0.925-0.416-0.924-0.928     c-0.001-0.513,0.414-0.923,0.925-0.925C46.8,19.885,47.215,20.299,47.214,20.81z"></path></g><g><path d="M39.673,22.583c0.135,0.495-0.158,1.002-0.655,1.136c-0.494,0.128-1.001-0.162-1.132-0.657     c-0.134-0.495,0.161-0.998,0.654-1.133C39.034,21.797,39.542,22.089,39.673,22.583z"></path></g><g><path d="M32.848,26.247c0.258,0.443,0.106,1.009-0.339,1.267c-0.444,0.252-1.009,0.103-1.264-0.342     c-0.258-0.443-0.103-1.005,0.338-1.263C32.027,25.653,32.593,25.804,32.848,26.247z"></path></g><g><path d="M27.204,31.552c0.364,0.361,0.364,0.947,0,1.312c-0.363,0.358-0.948,0.36-1.309-0.003c-0.364-0.361-0.36-0.944,0-1.308     C26.257,31.192,26.842,31.191,27.204,31.552z"></path></g><g><path d="M23.125,38.138c0.445,0.255,0.597,0.821,0.34,1.267c-0.258,0.44-0.822,0.594-1.265,0.335     c-0.445-0.255-0.592-0.819-0.338-1.263C22.117,38.035,22.682,37.883,23.125,38.138z"></path></g><g><path d="M20.889,45.556c0.496,0.131,0.789,0.638,0.656,1.135c-0.136,0.492-0.641,0.786-1.135,0.651     c-0.496-0.131-0.784-0.638-0.654-1.132C19.89,45.717,20.396,45.424,20.889,45.556z"></path></g><g><path d="M20.65,53.299c0.512-0.002,0.927,0.412,0.928,0.927c-0.004,0.51-0.416,0.925-0.928,0.923     c-0.513,0.002-0.922-0.413-0.924-0.924C19.726,53.713,20.139,53.299,20.65,53.299z"></path></g><g><path d="M22.423,60.84c0.494-0.135,1.001,0.158,1.136,0.655c0.128,0.493-0.162,1.001-0.658,1.132     c-0.495,0.135-0.998-0.16-1.132-0.653C21.638,61.479,21.929,60.973,22.423,60.84z"></path></g><g><path d="M26.087,67.665c0.442-0.258,1.008-0.106,1.267,0.339c0.251,0.443,0.103,1.009-0.342,1.264     c-0.443,0.258-1.005,0.104-1.262-0.338C25.494,68.486,25.645,67.921,26.087,67.665z"></path></g><g><path d="M31.393,73.31c0.361-0.363,0.946-0.364,1.311-0.001c0.358,0.363,0.36,0.948-0.003,1.31c-0.361,0.363-0.944,0.36-1.307,0     C31.033,74.256,31.031,73.671,31.393,73.31z"></path></g><g><path d="M37.979,77.389c0.254-0.444,0.82-0.597,1.266-0.341c0.44,0.259,0.593,0.823,0.335,1.267     c-0.255,0.444-0.818,0.592-1.262,0.338C37.875,78.396,37.723,77.831,37.979,77.389z"></path></g><g><path d="M45.396,79.624c0.131-0.495,0.638-0.788,1.135-0.657c0.492,0.137,0.786,0.642,0.652,1.137     c-0.131,0.495-0.637,0.784-1.131,0.653C45.557,80.623,45.264,80.117,45.396,79.624z"></path></g><g><path d="M53.139,79.863c-0.002-0.512,0.412-0.926,0.926-0.928c0.511,0.004,0.926,0.416,0.924,0.929     c0.002,0.512-0.412,0.923-0.924,0.924C53.553,80.787,53.139,80.374,53.139,79.863z"></path></g><g><path d="M60.68,78.091c-0.134-0.494,0.158-1.001,0.654-1.136c0.494-0.129,1.002,0.162,1.133,0.657     c0.134,0.494-0.159,0.999-0.653,1.132C61.319,78.876,60.812,78.584,60.68,78.091z"></path></g><g><path d="M67.505,74.427c-0.257-0.442-0.106-1.008,0.338-1.267c0.444-0.252,1.01-0.103,1.265,0.342     c0.257,0.442,0.104,1.006-0.338,1.263C68.326,75.02,67.76,74.869,67.505,74.427z"></path></g><g><path d="M73.149,69.121c-0.362-0.361-0.363-0.946-0.001-1.311c0.363-0.358,0.948-0.36,1.31,0.003c0.362,0.36,0.361,0.944,0,1.307     C74.097,69.481,73.51,69.482,73.149,69.121z"></path></g><g><path d="M77.229,62.535c-0.443-0.255-0.596-0.82-0.34-1.266c0.258-0.44,0.822-0.594,1.266-0.336     c0.442,0.254,0.593,0.818,0.338,1.262C78.236,62.639,77.67,62.791,77.229,62.535z"></path></g><g><circle cx="79.704" cy="54.225" r="0.925"></circle></g><g><circle cx="79.704" cy="46.45" r="0.925"></circle></g><g><circle cx="77.691" cy="38.94" r="0.925"></circle></g><g><circle cx="73.804" cy="32.207" r="0.925"></circle></g><g><circle cx="68.307" cy="26.71" r="0.925"></circle></g><g><circle cx="61.574" cy="22.822" r="0.925"></circle></g><g><circle cx="54.064" cy="20.81" r="0.926"></circle></g><g><circle cx="46.29" cy="20.81" r="0.926"></circle></g></g><path fill="none" stroke="#ff7a8a" stroke-width="1.1106" stroke-miterlimit="10" d="M50.048,52.235c0,0,7.925,6.613,0.255,13.747   C50.303,65.982,42.633,60.236,50.048,52.235z"></path><path fill="none" stroke="#ff7a8a" stroke-width="1.1106" stroke-miterlimit="10" d="M51.837,49.572c0,0-0.928-10.281,9.54-9.902   C61.377,39.67,62.739,49.157,51.837,49.572z"></path><circle fill="none" stroke="#ff7a8a" stroke-width="1.1106" stroke-miterlimit="10" cx="48.024" cy="51.353" r="1.851"></circle><circle fill="none" stroke="#ff7a8a" stroke-width="1.1106" stroke-miterlimit="10" cx="51.958" cy="51.538" r="1.851"></circle><circle fill="none" stroke="#ff7a8a" stroke-width="1.1106" stroke-miterlimit="10" cx="49.991" cy="48.091" r="1.851"></circle><path fill="none" stroke="#ff7a8a" stroke-width="1.1106" stroke-miterlimit="10" d="M38.062,39.76c0,0,10.281-0.927,9.901,9.541   C47.964,49.301,38.477,50.663,38.062,39.76z"></path><g><path d="M35.737,52.281c0,0-0.52,0.222-1.308,0.408c-0.789,0.195-1.846,0.36-2.91,0.438c-1.064,0.07-2.135,0.052-2.942-0.034    c-0.807-0.077-1.352-0.227-1.352-0.227s0.519-0.223,1.308-0.409c0.789-0.196,1.846-0.36,2.91-0.437    c1.064-0.069,2.135-0.05,2.942,0.035C35.192,52.133,35.737,52.281,35.737,52.281z"></path></g><g><path d="M37.491,56.593c0,0-0.347,0.446-0.946,0.991c-0.595,0.553-1.439,1.211-2.332,1.794c-0.897,0.577-1.842,1.081-2.59,1.397    c-0.743,0.324-1.292,0.457-1.292,0.457s0.346-0.446,0.945-0.992c0.595-0.554,1.44-1.211,2.333-1.793    c0.897-0.577,1.843-1.079,2.59-1.396C36.942,56.727,37.491,56.593,37.491,56.593z"></path></g><g><path d="M40.48,59.771c0,0-0.081,0.559-0.333,1.329c-0.244,0.774-0.653,1.763-1.142,2.711c-0.495,0.944-1.068,1.849-1.562,2.493    c-0.486,0.648-0.897,1.035-0.897,1.035s0.08-0.56,0.332-1.33c0.244-0.774,0.654-1.763,1.143-2.71    c0.495-0.944,1.069-1.848,1.563-2.492C40.069,60.159,40.48,59.771,40.48,59.771z"></path></g><g><path d="M60.178,60.347c0,0,0.481,0.295,1.091,0.83c0.616,0.529,1.364,1.295,2.044,2.117c0.674,0.827,1.279,1.71,1.678,2.418    c0.405,0.702,0.599,1.233,0.599,1.233s-0.482-0.294-1.092-0.829c-0.617-0.528-1.364-1.296-2.043-2.118    c-0.673-0.827-1.277-1.711-1.677-2.419C60.372,60.877,60.178,60.347,60.178,60.347z"></path></g><g><path d="M62.675,56.419c0,0,0.564,0.024,1.356,0.196c0.795,0.164,1.821,0.471,2.814,0.86c0.989,0.396,1.947,0.875,2.639,1.301    c0.695,0.418,1.122,0.788,1.122,0.788s-0.564-0.022-1.356-0.195c-0.796-0.163-1.821-0.472-2.814-0.861    c-0.989-0.397-1.946-0.877-2.639-1.303C63.103,56.788,62.675,56.419,62.675,56.419z"></path></g><g><path d="M63.534,52.141c0,0,0.502-0.258,1.276-0.499c0.772-0.249,1.815-0.489,2.871-0.641c1.057-0.144,2.125-0.201,2.937-0.171    c0.811,0.02,1.364,0.131,1.364,0.131s-0.502,0.259-1.276,0.5c-0.772,0.251-1.815,0.488-2.871,0.64    c-1.057,0.144-2.125,0.198-2.937,0.17C64.088,52.251,63.534,52.141,63.534,52.141z"></path></g><g><path d="M54.678,35.553c0,0,0.102-0.556,0.382-1.316c0.273-0.765,0.719-1.739,1.242-2.668c0.529-0.926,1.136-1.808,1.653-2.435    c0.51-0.63,0.936-1.002,0.936-1.002s-0.101,0.556-0.381,1.317c-0.272,0.766-0.72,1.738-1.243,2.668    c-0.53,0.925-1.138,1.807-1.654,2.434C55.103,35.181,54.678,35.553,54.678,35.553z"></path></g><g><path d="M50.116,34.634c0,0-0.181-0.535-0.304-1.336c-0.133-0.801-0.215-1.869-0.209-2.935c0.014-1.066,0.116-2.132,0.265-2.93    c0.14-0.799,0.332-1.33,0.332-1.33s0.182,0.535,0.306,1.336c0.134,0.801,0.214,1.869,0.208,2.935    c-0.015,1.066-0.118,2.132-0.266,2.93C50.307,34.103,50.116,34.634,50.116,34.634z"></path></g><g><path d="M45.815,35.372c0,0-0.421-0.376-0.924-1.011c-0.511-0.631-1.11-1.519-1.631-2.449c-0.514-0.934-0.952-1.911-1.216-2.679    c-0.273-0.764-0.368-1.32-0.368-1.32s0.422,0.375,0.926,1.011c0.511,0.631,1.109,1.519,1.629,2.449    c0.514,0.935,0.95,1.912,1.215,2.68C45.719,34.816,45.815,35.372,45.815,35.372z"></path></g></g></g><g id="SvgjsG1958" featurekey="nameFeature-0" transform="matrix(2.227521798732336,0,0,2.227521798732336,-7.217174366714148,160.50761826761413)" fill="#ff7a8a"><path d="M12.04 30.4 c-0.2 0 -0.36 -0.16 -0.36 -0.36 l0 -4.28 c0 -0.2 0.16 -0.36 0.36 -0.36 l9.16 0 c0.2 0 0.36 0.16 0.36 0.36 l0 6.28 c0 5.88 -3.16 8.36 -9.12 8.36 c-5.56 0 -9.2 -2.2 -9.2 -8.36 l0 -10.52 c0 -5.8 3.24 -8.28 9.2 -8.28 c5.6 0 9.12 2.16 9.12 8.28 l0 0.84 c0 0.2 -0.16 0.36 -0.36 0.36 l-4.6 0 c-0.2 0 -0.36 -0.16 -0.36 -0.36 l0 -0.52 c0 -2.44 -1.56 -3.24 -3.6 -3.24 l-0.48 0 c-1.32 0 -2.2 0.36 -2.8 1.16 c-0.56 0.76 -0.76 1.76 -0.76 3.08 l0 7.92 c0 3.48 1.88 4.24 3.56 4.24 l0.48 0 c2.44 0 3.6 -1.68 3.6 -4.24 l0 -0.36 l-4.2 0 z M5.68 31.759999999999998 c0 4.44 2.16 6.08 6.72 6.08 c4.8 0 6.76 -2 6.76 -6.92 l0 -3 c0 -0.12 -0.08 -0.28 -0.16 -0.28 l-5.56 0 c-0.36 0 -0.28 0.52 0 0.52 l5.24 0 l0 2.76 c0 4.28 -1.64 6.48 -6.28 6.48 c-3.84 0 -6.24 -1.36 -6.24 -5.64 l0 -9.64 c0 -4.12 1.88 -5.96 6.24 -5.96 c3.24 0 6.2 1.8 5.96 4.56 c0 0.32 0.44 0.4 0.52 0.04 c0 -3.52 -3.2 -5.04 -6.48 -5.04 c-4 0 -6.72 1.44 -6.72 6.4 l0 9.64 z M37.789 13.239999999999998 c3.44 0 5.84 0.76 7.36 2.4 c1.2 1.32 1.76 3.2 1.76 5.88 l0 10.52 c0 2.76 -0.56 4.68 -1.76 5.96 c-1.56 1.6 -3.92 2.4 -7.36 2.4 c-3.56 0 -5.88 -0.8 -7.4 -2.4 c-1.16 -1.28 -1.8 -3.2 -1.8 -5.96 l0 -10.52 c0 -2.68 0.64 -4.56 1.8 -5.92 c1.56 -1.6 3.92 -2.36 7.4 -2.36 z M41.589 30.84 l0 -8 c0 -3.52 -1.88 -4.24 -3.6 -4.24 l-0.48 0 c-2.56 0 -3.56 1.64 -3.56 4.24 l0 8 c0 3.52 1.88 4.28 3.56 4.28 l0.48 0 c2.56 0 3.56 -1.72 3.6 -4.28 z M31.109 21.8 l0 9.92 c0 1.88 0.48 3.44 1.6 4.6 c1.04 1.04 2.64 1.6 4.6 1.6 l1.04 0 c3.76 0 6.2 -2.4 6.2 -6.2 l0 -9.92 c0 -4.08 -2.16 -6.28 -6.2 -6.28 l-1.04 0 c-4.08 0 -6.2 2.2 -6.2 6.28 z M38.349000000000004 37.4 l-1.04 0 c-1.88 0 -3.28 -0.48 -4.28 -1.48 s-1.52 -2.4 -1.52 -4.2 l0 -9.92 c0 -3.8 2.04 -5.8 5.8 -5.8 l1.04 0 c3.8 0 5.68 1.96 5.68 5.8 l0 9.92 c0 1.68 -0.52 3.2 -1.6 4.24 c-1.04 0.88 -2.44 1.44 -4.08 1.44 z M63.337999999999994 13.239999999999998 c3.44 0 5.84 0.76 7.36 2.4 c1.2 1.32 1.76 3.2 1.76 5.88 l0 10.52 c0 2.76 -0.56 4.68 -1.76 5.96 c-1.56 1.6 -3.92 2.4 -7.36 2.4 c-3.56 0 -5.88 -0.8 -7.4 -2.4 c-1.16 -1.28 -1.8 -3.2 -1.8 -5.96 l0 -10.52 c0 -2.68 0.64 -4.56 1.8 -5.92 c1.56 -1.6 3.92 -2.36 7.4 -2.36 z M67.13799999999999 30.84 l0 -8 c0 -3.52 -1.88 -4.24 -3.6 -4.24 l-0.48 0 c-2.56 0 -3.56 1.64 -3.56 4.24 l0 8 c0 3.52 1.88 4.28 3.56 4.28 l0.48 0 c2.56 0 3.56 -1.72 3.6 -4.28 z M56.657999999999994 21.8 l0 9.92 c0 1.88 0.48 3.44 1.6 4.6 c1.04 1.04 2.64 1.6 4.6 1.6 l1.04 0 c3.76 0 6.2 -2.4 6.2 -6.2 l0 -9.92 c0 -4.08 -2.16 -6.28 -6.2 -6.28 l-1.04 0 c-4.08 0 -6.2 2.2 -6.2 6.28 z M63.897999999999996 37.4 l-1.04 0 c-1.88 0 -3.28 -0.48 -4.28 -1.48 s-1.52 -2.4 -1.52 -4.2 l0 -9.92 c0 -3.8 2.04 -5.8 5.8 -5.8 l1.04 0 c3.8 0 5.68 1.96 5.68 5.8 l0 9.92 c0 1.68 -0.52 3.2 -1.6 4.24 c-1.04 0.88 -2.44 1.44 -4.08 1.44 z M90.527 13.600000000000001 c2.72 0 4.76 0.76 6.12 2.24 c1.2 1.32 1.8 3.28 1.8 5.68 l0 10.6 c0 4.84 -2.8 7.88 -7.92 7.88 l-10 0 c-0.2 0 -0.32 -0.16 -0.32 -0.36 l0 -25.68 c0 -0.2 0.12 -0.36 0.32 -0.36 l10 0 z M93.20700000000001 30.92 l0 -8.2 c0 -2.52 -1.32 -4.12 -4.12 -4.12 l-3.6 0 l0 16.4 l3.6 0 c2.4 0 4.12 -1.56 4.12 -4.08 z M82.647 16.04 l0 21.52 c0 0.16 0.16 0.2 0.24 0.2 l6.52 0 c4.6 0 6.68 -2.76 6.68 -5.32 l0 -10.24 c0 -4.24 -2.24 -6.4 -6.8 -6.4 l-6.4 0 c-0.08 0 -0.24 0.04 -0.24 0.24 z M95.607 22.2 l0 10.24 c0 3.2 -3.2 4.88 -6.2 4.88 l-6.28 0 l0 -21 l6.16 0 c4.2 0 6.32 1.88 6.32 5.88 z"></path></g><g id="SvgjsG1959" featurekey="nameFeature-1" transform="matrix(2.3240374525474543,0,0,2.3240374525474543,-8.73838079941468,229.22974466020167)" fill="#ff7a8a"><path d="M18.84 20.44 c0 1.56 -0.24 2.92 -0.8 3.92 c1.52 1.44 2.16 3.76 2.16 7 c0 3.44 -0.72 5.88 -2.36 7.16 c-1.56 1.24 -3.76 1.48 -5.96 1.48 l-7.8 0 c-0.2 0 -0.32 -0.16 -0.32 -0.36 l0 -25.68 c0 -0.2 0.12 -0.36 0.32 -0.36 l6.4 0 c2.16 0 4.4 0.16 5.92 1.16 c1.88 1.2 2.44 3.36 2.44 5.68 z M9.04 18.84 l0 3.6 l2.44 0 c1.28 0 1.96 -0.4 1.96 -1.8 s-1.04 -1.8 -2.8 -1.8 l-1.6 0 z M10.56 34.76 c2.2 0 4.28 -0.96 4.28 -3.52 c0 -1.92 -1.36 -3.44 -3.4 -3.44 l-2.4 0 l0 6.96 l1.52 0 z M6.08 16.12 l0 21.32 c0 0.2 0.16 0.28 0.32 0.28 l5.36 0 c3.88 0 6.2 -1.96 6.2 -6.16 c0 -3 -0.68 -6.12 -3.8 -7 c1.84 -0.6 2.32 -2.44 2.32 -4.4 c0 -3.2 -1.8 -4.36 -5.04 -4.36 l-5.04 0 c-0.24 0 -0.32 0.12 -0.32 0.32 z M11.16 37.24 l-4.56 0 l0 -12.32 l5.64 0 c4.12 0 5.16 2.68 5.16 6.64 c0 4.04 -2.2 5.84 -6.24 5.68 z M16 20.16 c0 3.24 -1.36 4.24 -4.64 4.24 l-4.76 0 l0 -8.08 l4.84 0 c2.36 0 4.56 0.44 4.56 3.84 z M36.189 13.239999999999998 c3.44 0 5.84 0.76 7.36 2.4 c1.2 1.32 1.76 3.2 1.76 5.88 l0 10.52 c0 2.76 -0.56 4.68 -1.76 5.96 c-1.56 1.6 -3.92 2.4 -7.36 2.4 c-3.56 0 -5.88 -0.8 -7.4 -2.4 c-1.16 -1.28 -1.8 -3.2 -1.8 -5.96 l0 -10.52 c0 -2.68 0.64 -4.56 1.8 -5.92 c1.56 -1.6 3.92 -2.36 7.4 -2.36 z M39.989 30.84 l0 -8 c0 -3.52 -1.88 -4.24 -3.6 -4.24 l-0.48 0 c-2.56 0 -3.56 1.64 -3.56 4.24 l0 8 c0 3.52 1.88 4.28 3.56 4.28 l0.48 0 c2.56 0 3.56 -1.72 3.6 -4.28 z M29.509 21.8 l0 9.92 c0 1.88 0.48 3.44 1.6 4.6 c1.04 1.04 2.64 1.6 4.6 1.6 l1.04 0 c3.76 0 6.2 -2.4 6.2 -6.2 l0 -9.92 c0 -4.08 -2.16 -6.28 -6.2 -6.28 l-1.04 0 c-4.08 0 -6.2 2.2 -6.2 6.28 z M36.748999999999995 37.4 l-1.04 0 c-1.88 0 -3.28 -0.48 -4.28 -1.48 s-1.52 -2.4 -1.52 -4.2 l0 -9.92 c0 -3.8 2.04 -5.8 5.8 -5.8 l1.04 0 c3.8 0 5.68 1.96 5.68 5.8 l0 9.92 c0 1.68 -0.52 3.2 -1.6 4.24 c-1.04 0.88 -2.44 1.44 -4.08 1.44 z M63.978 13.96 c0 -0.2 0.16 -0.36 0.36 -0.36 l4.6 0 c0.2 0 0.36 0.16 0.36 0.36 l0 25.68 c0 0.2 -0.16 0.36 -0.36 0.36 l-4.44 0 c-0.16 0 -0.32 -0.08 -0.36 -0.2 l-5.84 -13.16 l0 13 c0 0.2 -0.16 0.36 -0.36 0.36 l-4.56 0 c-0.2 0 -0.32 -0.16 -0.32 -0.36 l0 -25.68 c0 -0.2 0.12 -0.36 0.32 -0.36 l4.72 0 c0.16 0 0.24 0.12 0.28 0.2 l5.6 12.92 l0 -12.76 z M66.858 37.6 l0 -21.6 c0 -0.28 -0.52 -0.36 -0.52 0 l0 20.56 l-10.44 -20.64 c-0.12 -0.16 -0.44 -0.16 -0.44 0.08 l0 21.56 c0 0.36 0.48 0.36 0.48 0 l0 -20.52 l10.4 20.6 c0.16 0.28 0.52 0.2 0.52 -0.04 z M82.56700000000001 13.84 c0.04 -0.12 0.12 -0.24 0.28 -0.24 l4.96 0 c0.16 0 0.24 0.12 0.28 0.24 l6.92 25.72 c0.04 0.24 -0.12 0.44 -0.36 0.44 l-4.56 0 c-0.12 0 -0.24 -0.08 -0.28 -0.24 l-1.56 -5.6 l-5.84 0 l-1.52 5.6 c-0.04 0.16 -0.12 0.24 -0.28 0.24 l-4.6 0 c-0.24 0 -0.4 -0.2 -0.36 -0.44 z M83.687 29.2 l3.32 0 l-1.72 -6.04 z M89.84700000000001 31.560000000000002 l1.84 6 c0.08 0.24 0.52 0.2 0.4 -0.12 l-6.4 -21.28 c-0.12 -0.52 -0.8 -0.56 -0.92 0 l-6.2 21.28 c-0.12 0.28 0.32 0.4 0.44 0.16 l1.76 -6.04 l9.08 0 z M80.887 31.04 l4.36 -14.72 l4.44 14.72 l-8.8 0 z"></path></g><g id="SvgjsG1960" featurekey="sloganFeature-0" transform="matrix(0.49477923232685617,0,0,0.49477923232685617,20.06981492762024,340.72456224640655)" fill="#ff7a8a"><path d="M3.08 8 l0 10.78 c0 0.14 0.24 0.18 0.24 0 l0 -5.38 l3.68 0 c0.2 0 0.2 -0.28 0 -0.28 l-3.68 0 l0 -4.96 l4.48 0 c0.14 0 0.18 -0.26 0 -0.26 l-4.6 0 c-0.06 0 -0.12 0.02 -0.12 0.1 z M4.34 20 l-2.3 0 c-0.1 0 -0.16 -0.08 -0.16 -0.18 l0 -12.84 c0 -0.1 0.06 -0.18 0.16 -0.18 l6.8 0 c0.1 0 0.18 0.08 0.18 0.18 l0 2.14 c0 0.1 -0.08 0.18 -0.18 0.18 l-4.32 0 l0 2.72 l3.36 0 c0.1 0 0.16 0.08 0.16 0.18 l0 2.18 c0 0.1 -0.06 0.18 -0.16 0.18 l-3.36 0 l0 5.26 c0 0.1 -0.08 0.18 -0.18 0.18 z M15.3835 6.800000000000001 c0.1 0 0.18 0.08 0.18 0.18 l0 10.5 l4.32 0 c0.1 0 0.18 0.08 0.18 0.18 l0 2.16 c0 0.1 -0.08 0.18 -0.18 0.18 l-6.78 0 c-0.1 0 -0.16 -0.08 -0.16 -0.18 l0 -12.84 c0 -0.1 0.06 -0.18 0.16 -0.18 l2.28 0 z M14.1435 8.02 l0 10.76 c0 0.04 0.04 0.1 0.12 0.1 l4.62 0 c0.16 0 0.16 -0.26 0 -0.26 l-4.52 0 l0 -10.6 c0 -0.14 -0.22 -0.16 -0.22 0 z M26.487 6.92 c0.02 -0.06 0.06 -0.12 0.14 -0.12 l2.48 0 c0.08 0 0.12 0.06 0.14 0.12 l3.46 12.86 c0.02 0.12 -0.06 0.22 -0.18 0.22 l-2.28 0 c-0.06 0 -0.12 -0.04 -0.14 -0.12 l-0.78 -2.8 l-2.92 0 l-0.76 2.8 c-0.02 0.08 -0.06 0.12 -0.14 0.12 l-2.3 0 c-0.12 0 -0.2 -0.1 -0.18 -0.22 z M27.047 14.6 l1.66 0 l-0.86 -3.02 z M30.127 15.780000000000001 l0.92 3 c0.04 0.12 0.26 0.1 0.2 -0.06 l-3.2 -10.64 c-0.06 -0.26 -0.4 -0.28 -0.46 0 l-3.1 10.64 c-0.06 0.14 0.16 0.2 0.22 0.08 l0.88 -3.02 l4.54 0 z M25.647 15.52 l2.18 -7.36 l2.22 7.36 l-4.4 0 z M38.3305 6.92 l2.2 8.28 l2.26 -8.28 c0.04 -0.06 0.08 -0.12 0.16 -0.12 l2.28 0 c0.12 0 0.2 0.1 0.16 0.22 l-3.46 12.86 c-0.04 0.08 -0.08 0.12 -0.16 0.12 l-2.48 0 c-0.06 0 -0.12 -0.04 -0.14 -0.12 l-3.46 -12.86 c-0.02 -0.12 0.06 -0.22 0.18 -0.22 l2.3 0 c0.08 0 0.12 0.06 0.16 0.12 z M40.490500000000004 18.62 l-3.34 -10.66 c-0.06 -0.16 -0.28 -0.06 -0.22 0.06 l3.32 10.68 c0.08 0.3 0.4 0.32 0.5 0 l3.2 -10.68 c0.04 -0.12 -0.18 -0.2 -0.22 -0.06 z M53.634 6.619999999999999 c1.72 0 2.92 0.38 3.68 1.2 c0.6 0.66 0.88 1.6 0.88 2.94 l0 5.26 c0 1.38 -0.28 2.34 -0.88 2.98 c-0.78 0.8 -1.96 1.2 -3.68 1.2 c-1.78 0 -2.94 -0.4 -3.7 -1.2 c-0.58 -0.64 -0.9 -1.6 -0.9 -2.98 l0 -5.26 c0 -1.34 0.32 -2.28 0.9 -2.96 c0.78 -0.8 1.96 -1.18 3.7 -1.18 z M55.534 15.42 l0 -4 c0 -1.76 -0.94 -2.12 -1.8 -2.12 l-0.24 0 c-1.28 0 -1.78 0.82 -1.78 2.12 l0 4 c0 1.76 0.94 2.14 1.78 2.14 l0.24 0 c1.28 0 1.78 -0.86 1.8 -2.14 z M50.294000000000004 10.9 l0 4.96 c0 0.94 0.24 1.72 0.8 2.3 c0.52 0.52 1.32 0.8 2.3 0.8 l0.52 0 c1.88 0 3.1 -1.2 3.1 -3.1 l0 -4.96 c0 -2.04 -1.08 -3.14 -3.1 -3.14 l-0.52 0 c-2.04 0 -3.1 1.1 -3.1 3.14 z M53.914 18.7 l-0.52 0 c-0.94 0 -1.64 -0.24 -2.14 -0.74 s-0.76 -1.2 -0.76 -2.1 l0 -4.96 c0 -1.9 1.02 -2.9 2.9 -2.9 l0.52 0 c1.9 0 2.84 0.98 2.84 2.9 l0 4.96 c0 0.84 -0.26 1.6 -0.8 2.12 c-0.52 0.44 -1.22 0.72 -2.04 0.72 z M70.3175 14.780000000000001 c-0.28 0.58 -0.68 1.02 -1.24 1.28 l1.68 3.7 c0.06 0.12 -0.02 0.24 -0.14 0.24 l-2.46 0 c-0.08 0 -0.12 -0.04 -0.14 -0.1 l-1.56 -3.4 l-1.02 0 l0 3.32 c0 0.1 -0.08 0.18 -0.18 0.18 l-2.3 0 c-0.08 0 -0.14 -0.08 -0.14 -0.18 l0 -12.84 c0 -0.1 0.06 -0.18 0.14 -0.18 l4.16 0 c2.22 0 3.56 1.26 3.56 3.6 l0 2.52 c0 0.7 -0.12 1.36 -0.36 1.86 z M68.0575 12.3 l0 -1.3 c0 -1.4 -0.52 -1.54 -2.04 -1.54 l-0.58 0 l0 4.42 l0.58 0 c1.26 0 2 -0.02 2.04 -1.58 z M64.2775 18.78 l0 -3.42 l2.88 0 l1.68 3.46 c0.04 0.1 0.28 0.06 0.22 -0.12 l-1.68 -3.4 c1.56 -0.22 2.1 -1.04 2.1 -2.52 l0 -2.5 c0 -2.2 -2 -2.38 -2.62 -2.38 l-2.7 0 c-0.04 0 -0.12 0.06 -0.12 0.12 l0 10.76 c0 0.14 0.24 0.14 0.24 0 z M69.2375 10.28 l0 2.5 c0 2.04 -1.3 2.32 -2.56 2.32 l-2.4 0 l0 -6.94 l2.58 0 c2.16 0 2.38 1.46 2.38 2.12 z M86.0045 9.3 l-2.84 0 c-0.1 0 -0.18 -0.08 -0.18 -0.18 l0 -2.14 c0 -0.1 0.08 -0.18 0.18 -0.18 l8.34 0 c0.1 0 0.18 0.08 0.18 0.18 l0 2.14 c0 0.1 -0.08 0.18 -0.18 0.18 l-2.84 0 l0 10.52 c0 0.1 -0.08 0.18 -0.18 0.18 l-2.3 0 c-0.1 0 -0.18 -0.08 -0.18 -0.18 l0 -10.52 z M90.2845 7.9 l-6.04 0 c-0.14 0 -0.14 0.26 0 0.26 l2.96 0 l0 10.6 c0 0.14 0.26 0.14 0.26 0 l0 -10.6 l2.82 0 c0.2 0 0.18 -0.26 0 -0.26 z M101.46799999999999 12 l0 -5.02 c0 -0.1 0.08 -0.18 0.18 -0.18 l2.28 0 c0.1 0 0.18 0.08 0.18 0.18 l0 12.84 c0 0.1 -0.08 0.18 -0.18 0.18 l-2.28 0 c-0.1 0 -0.18 -0.08 -0.18 -0.18 l0 -5.32 l-3.24 0 l0 5.32 c0 0.1 -0.08 0.18 -0.18 0.18 l-2.28 0 c-0.1 0 -0.16 -0.08 -0.16 -0.18 l0 -12.84 c0 -0.1 0.06 -0.18 0.16 -0.18 l2.28 0 c0.1 0 0.18 0.08 0.18 0.18 l0 5.02 l3.24 0 z M96.768 18.76 c0 0.16 0.26 0.14 0.26 0 l0 -5.36 l5.62 0 l0 5.36 c0 0.14 0.22 0.16 0.22 0 l0 -10.76 c0 -0.14 -0.22 -0.18 -0.22 0 l0 5.12 l-5.62 0 l0 -5.12 c0 -0.14 -0.26 -0.14 -0.26 0 l0 10.76 z M111.47149999999999 6.92 c0.02 -0.06 0.06 -0.12 0.14 -0.12 l2.48 0 c0.08 0 0.12 0.06 0.14 0.12 l3.46 12.86 c0.02 0.12 -0.06 0.22 -0.18 0.22 l-2.28 0 c-0.06 0 -0.12 -0.04 -0.14 -0.12 l-0.78 -2.8 l-2.92 0 l-0.76 2.8 c-0.02 0.08 -0.06 0.12 -0.14 0.12 l-2.3 0 c-0.12 0 -0.2 -0.1 -0.18 -0.22 z M112.0315 14.6 l1.66 0 l-0.86 -3.02 z M115.11149999999999 15.780000000000001 l0.92 3 c0.04 0.12 0.26 0.1 0.2 -0.06 l-3.2 -10.64 c-0.06 -0.26 -0.4 -0.28 -0.46 0 l-3.1 10.64 c-0.06 0.14 0.16 0.2 0.22 0.08 l0.88 -3.02 l4.54 0 z M110.6315 15.52 l2.18 -7.36 l2.22 7.36 l-4.4 0 z M123.675 9.3 l-2.84 0 c-0.1 0 -0.18 -0.08 -0.18 -0.18 l0 -2.14 c0 -0.1 0.08 -0.18 0.18 -0.18 l8.34 0 c0.1 0 0.18 0.08 0.18 0.18 l0 2.14 c0 0.1 -0.08 0.18 -0.18 0.18 l-2.84 0 l0 10.52 c0 0.1 -0.08 0.18 -0.18 0.18 l-2.3 0 c-0.1 0 -0.18 -0.08 -0.18 -0.18 l0 -10.52 z M127.955 7.9 l-6.04 0 c-0.14 0 -0.14 0.26 0 0.26 l2.96 0 l0 10.6 c0 0.14 0.26 0.14 0.26 0 l0 -10.6 l2.82 0 c0.2 0 0.18 -0.26 0 -0.26 z M144.322 6.800000000000001 c0.1 0 0.18 0.08 0.18 0.18 l0 10.5 l4.32 0 c0.1 0 0.18 0.08 0.18 0.18 l0 2.16 c0 0.1 -0.08 0.18 -0.18 0.18 l-6.78 0 c-0.1 0 -0.16 -0.08 -0.16 -0.18 l0 -12.84 c0 -0.1 0.06 -0.18 0.16 -0.18 l2.28 0 z M143.08200000000002 8.02 l0 10.76 c0 0.04 0.04 0.1 0.12 0.1 l4.62 0 c0.16 0 0.16 -0.26 0 -0.26 l-4.52 0 l0 -10.6 c0 -0.14 -0.22 -0.16 -0.22 0 z M153.0855 20 c-0.1 0 -0.16 -0.08 -0.16 -0.18 l0 -12.84 c0 -0.1 0.06 -0.18 0.16 -0.18 l2.28 0 c0.1 0 0.18 0.08 0.18 0.18 l0 12.84 c0 0.1 -0.08 0.18 -0.18 0.18 l-2.28 0 z M154.12550000000002 8 l0 10.78 c0 0.18 0.22 0.18 0.22 0 l0 -10.78 c0 -0.14 -0.22 -0.14 -0.22 0 z M165.809 6.98 c0 -0.1 0.08 -0.18 0.18 -0.18 l2.3 0 c0.1 0 0.18 0.08 0.18 0.18 l0 12.84 c0 0.1 -0.08 0.18 -0.18 0.18 l-2.22 0 c-0.08 0 -0.16 -0.04 -0.18 -0.1 l-2.92 -6.58 l0 6.5 c0 0.1 -0.08 0.18 -0.18 0.18 l-2.28 0 c-0.1 0 -0.16 -0.08 -0.16 -0.18 l0 -12.84 c0 -0.1 0.06 -0.18 0.16 -0.18 l2.36 0 c0.08 0 0.12 0.06 0.14 0.1 l2.8 6.46 l0 -6.38 z M167.249 18.8 l0 -10.8 c0 -0.14 -0.26 -0.18 -0.26 0 l0 10.28 l-5.22 -10.32 c-0.06 -0.08 -0.22 -0.08 -0.22 0.04 l0 10.78 c0 0.18 0.24 0.18 0.24 0 l0 -10.26 l5.2 10.3 c0.08 0.14 0.26 0.1 0.26 -0.02 z M177.4925 15.2 c-0.1 0 -0.18 -0.08 -0.18 -0.18 l0 -2.14 c0 -0.1 0.08 -0.18 0.18 -0.18 l4.58 0 c0.1 0 0.18 0.08 0.18 0.18 l0 3.14 c0 2.94 -1.58 4.18 -4.56 4.18 c-2.78 0 -4.6 -1.1 -4.6 -4.18 l0 -5.26 c0 -2.9 1.62 -4.14 4.6 -4.14 c2.8 0 4.56 1.08 4.56 4.14 l0 0.42 c0 0.1 -0.08 0.18 -0.18 0.18 l-2.3 0 c-0.1 0 -0.18 -0.08 -0.18 -0.18 l0 -0.26 c0 -1.22 -0.78 -1.62 -1.8 -1.62 l-0.24 0 c-0.66 0 -1.1 0.18 -1.4 0.58 c-0.28 0.38 -0.38 0.88 -0.38 1.54 l0 3.96 c0 1.74 0.94 2.12 1.78 2.12 l0.24 0 c1.22 0 1.8 -0.84 1.8 -2.12 l0 -0.18 l-2.1 0 z M174.3125 15.879999999999999 c0 2.22 1.08 3.04 3.36 3.04 c2.4 0 3.38 -1 3.38 -3.46 l0 -1.5 c0 -0.06 -0.04 -0.14 -0.08 -0.14 l-2.78 0 c-0.18 0 -0.14 0.26 0 0.26 l2.62 0 l0 1.38 c0 2.14 -0.82 3.24 -3.14 3.24 c-1.92 0 -3.12 -0.68 -3.12 -2.82 l0 -4.82 c0 -2.06 0.94 -2.98 3.12 -2.98 c1.62 0 3.1 0.9 2.98 2.28 c0 0.16 0.22 0.2 0.26 0.02 c0 -1.76 -1.6 -2.52 -3.24 -2.52 c-2 0 -3.36 0.72 -3.36 3.2 l0 4.82 z M186.93599999999998 20 c-0.1 0 -0.16 -0.08 -0.16 -0.18 l0 -12.84 c0 -0.1 0.06 -0.18 0.16 -0.18 l6.8 0 c0.1 0 0.18 0.08 0.18 0.18 l0 2.14 c0 0.1 -0.08 0.18 -0.18 0.18 l-4.32 0 l0 2.72 l3.36 0 c0.1 0 0.16 0.08 0.16 0.18 l0 2.18 c0 0.1 -0.06 0.18 -0.16 0.18 l-3.36 0 l0 2.94 l4.32 0 c0.1 0 0.18 0.08 0.18 0.18 l0 2.14 c0 0.1 -0.08 0.18 -0.18 0.18 l-6.8 0 z M187.93599999999998 8.06 l0 10.64 c0 0.12 0.08 0.16 0.16 0.16 l4.6 0 c0.18 0 0.14 -0.24 0 -0.24 l-4.5 0 l0 -5.22 l3.68 0 c0.12 0 0.12 -0.28 0 -0.28 l-3.68 0 l0 -4.96 l4.5 0 c0.14 0 0.18 -0.26 0 -0.26 l-4.6 0 c-0.08 0 -0.16 0.06 -0.16 0.16 z M205.91949999999997 14.780000000000001 c-0.28 0.58 -0.68 1.02 -1.24 1.28 l1.68 3.7 c0.06 0.12 -0.02 0.24 -0.14 0.24 l-2.46 0 c-0.08 0 -0.12 -0.04 -0.14 -0.1 l-1.56 -3.4 l-1.02 0 l0 3.32 c0 0.1 -0.08 0.18 -0.18 0.18 l-2.3 0 c-0.08 0 -0.14 -0.08 -0.14 -0.18 l0 -12.84 c0 -0.1 0.06 -0.18 0.14 -0.18 l4.16 0 c2.22 0 3.56 1.26 3.56 3.6 l0 2.52 c0 0.7 -0.12 1.36 -0.36 1.86 z M203.65949999999998 12.3 l0 -1.3 c0 -1.4 -0.52 -1.54 -2.04 -1.54 l-0.58 0 l0 4.42 l0.58 0 c1.26 0 2 -0.02 2.04 -1.58 z M199.87949999999998 18.78 l0 -3.42 l2.88 0 l1.68 3.46 c0.04 0.1 0.28 0.06 0.22 -0.12 l-1.68 -3.4 c1.56 -0.22 2.1 -1.04 2.1 -2.52 l0 -2.5 c0 -2.2 -2 -2.38 -2.62 -2.38 l-2.7 0 c-0.04 0 -0.12 0.06 -0.12 0.12 l0 10.76 c0 0.14 0.24 0.14 0.24 0 z M204.8395 10.28 l0 2.5 c0 2.04 -1.3 2.32 -2.56 2.32 l-2.4 0 l0 -6.94 l2.58 0 c2.16 0 2.38 1.46 2.38 2.12 z M215.44299999999998 11.9 c1.52 0.72 3.5 1.86 3.5 3.92 c0 0.6 -0.1 1.76 -0.76 2.74 c-0.74 1.1 -1.9 1.64 -3.5 1.64 c-1.7 0 -3.68 -0.82 -4.3 -2.68 c-0.02 -0.06 0 -0.12 0.06 -0.16 l1.84 -1.58 c0.08 -0.06 0.2 -0.06 0.26 0.04 c0.04 0.1 0.12 0.26 0.22 0.46 c0.3 0.62 1.02 1.24 1.82 1.24 c0.62 0 1.46 -0.34 1.46 -1.3 c0 -0.92 -1.26 -1.44 -2.04 -1.74 c-0.9 -0.36 -1.82 -0.82 -2.6 -1.5 c-0.82 -0.76 -1.22 -1.6 -1.22 -2.6 c0 -2.5 2.3 -3.76 4.48 -3.76 c1.72 0 3 0.9 3.84 2.68 c0.04 0.08 0 0.18 -0.06 0.22 l-1.78 1.24 c-0.08 0.04 -0.12 0.04 -0.2 -0.06 c-0.68 -0.98 -1.28 -1.44 -2.08 -1.44 c-0.42 0 -1.4 0.16 -1.4 0.9 c0 0.9 1.66 1.36 2.46 1.74 z M211.803 17.42 c0.5 1 1.88 1.58 3 1.58 c1.46 0 2.64 -1 2.8 -2.52 c0.2 -1.86 -1.26 -2.66 -2.7 -3.38 l-0.64 -0.28 c-1.48 -0.66 -2.56 -1.16 -2.56 -2.54 c0 -1.52 1.4 -2.22 2.78 -2.22 c1.26 0 1.92 0.74 2.26 1.2 c0.12 0.16 0.32 0.02 0.2 -0.14 c-0.34 -0.42 -1.06 -1.3 -2.46 -1.3 c-1.58 0 -3.02 0.78 -3.02 2.46 c0 1.5 1.2 2.08 2.72 2.78 l0.62 0.3 c1.98 0.94 2.7 1.82 2.54 3.1 c-0.3 2.04 -1.86 2.3 -2.54 2.3 c-1.5 0 -2.5 -0.9 -2.8 -1.46 c-0.1 -0.1 -0.24 0 -0.2 0.12 z M231.82999999999998 20 c-0.1 0 -0.16 -0.08 -0.16 -0.18 l0 -12.84 c0 -0.1 0.06 -0.18 0.16 -0.18 l2.28 0 c0.1 0 0.18 0.08 0.18 0.18 l0 12.84 c0 0.1 -0.08 0.18 -0.18 0.18 l-2.28 0 z M232.87 8 l0 10.78 c0 0.18 0.22 0.18 0.22 0 l0 -10.78 c0 -0.14 -0.22 -0.14 -0.22 0 z M244.55349999999999 6.98 c0 -0.1 0.08 -0.18 0.18 -0.18 l2.3 0 c0.1 0 0.18 0.08 0.18 0.18 l0 12.84 c0 0.1 -0.08 0.18 -0.18 0.18 l-2.22 0 c-0.08 0 -0.16 -0.04 -0.18 -0.1 l-2.92 -6.58 l0 6.5 c0 0.1 -0.08 0.18 -0.18 0.18 l-2.28 0 c-0.1 0 -0.16 -0.08 -0.16 -0.18 l0 -12.84 c0 -0.1 0.06 -0.18 0.16 -0.18 l2.36 0 c0.08 0 0.12 0.06 0.14 0.1 l2.8 6.46 l0 -6.38 z M245.99349999999998 18.8 l0 -10.8 c0 -0.14 -0.26 -0.18 -0.26 0 l0 10.28 l-5.22 -10.32 c-0.06 -0.08 -0.22 -0.08 -0.22 0.04 l0 10.78 c0 0.18 0.24 0.18 0.24 0 l0 -10.26 l5.2 10.3 c0.08 0.14 0.26 0.1 0.26 -0.02 z M271.7405 6.800000000000001 c0.1 0 0.18 0.08 0.18 0.18 l0 12.84 c0 0.1 -0.08 0.18 -0.18 0.18 l-2.18 0 c-0.06 0 -0.16 -0.08 -0.16 -0.18 l0 -7.4 l-2.2 7.46 c-0.04 0.08 -0.08 0.12 -0.16 0.12 l-1.58 0 c-0.06 0 -0.14 -0.04 -0.16 -0.12 l-2.06 -7.6 l0 7.54 c0 0.1 -0.08 0.18 -0.18 0.18 l-2.22 0 c-0.08 0 -0.14 -0.08 -0.14 -0.18 l0 -12.84 c0 -0.1 0.06 -0.18 0.14 -0.18 l2.8 0 c0.08 0 0.16 0.06 0.18 0.12 l2.42 8.1 l2.66 -8.1 c0 -0.06 0.06 -0.12 0.14 -0.12 l2.7 0 z M270.5005 18.78 c0 0.14 0.26 0.18 0.26 0 l0 -10.78 c0 -0.04 -0.06 -0.1 -0.12 -0.1 l-0.94 0 c-0.08 0 -0.1 0.06 -0.14 0.1 l-3.32 9.9 l-3.3 -9.92 c0 -0.06 -0.04 -0.08 -0.1 -0.08 l-0.98 0 c-0.06 0 -0.12 0.06 -0.12 0.12 l0 10.76 c0 0.14 0.26 0.18 0.26 0 l0 -10.62 l0.74 0 l3.38 10.16 c0.08 0.14 0.14 0.1 0.24 0 l3.4 -10.16 l0.74 0 l0 10.62 z M276.964 20 c-0.1 0 -0.16 -0.08 -0.16 -0.18 l0 -12.84 c0 -0.1 0.06 -0.18 0.16 -0.18 l6.8 0 c0.1 0 0.18 0.08 0.18 0.18 l0 2.14 c0 0.1 -0.08 0.18 -0.18 0.18 l-4.32 0 l0 2.72 l3.36 0 c0.1 0 0.16 0.08 0.16 0.18 l0 2.18 c0 0.1 -0.06 0.18 -0.16 0.18 l-3.36 0 l0 2.94 l4.32 0 c0.1 0 0.18 0.08 0.18 0.18 l0 2.14 c0 0.1 -0.08 0.18 -0.18 0.18 l-6.8 0 z M277.964 8.06 l0 10.64 c0 0.12 0.08 0.16 0.16 0.16 l4.6 0 c0.18 0 0.14 -0.24 0 -0.24 l-4.5 0 l0 -5.22 l3.68 0 c0.12 0 0.12 -0.28 0 -0.28 l-3.68 0 l0 -4.96 l4.5 0 c0.14 0 0.18 -0.26 0 -0.26 l-4.6 0 c-0.08 0 -0.16 0.06 -0.16 0.16 z M299.4875 6.800000000000001 c0.1 0 0.18 0.08 0.18 0.18 l0 12.84 c0 0.1 -0.08 0.18 -0.18 0.18 l-2.18 0 c-0.06 0 -0.16 -0.08 -0.16 -0.18 l0 -7.4 l-2.2 7.46 c-0.04 0.08 -0.08 0.12 -0.16 0.12 l-1.58 0 c-0.06 0 -0.14 -0.04 -0.16 -0.12 l-2.06 -7.6 l0 7.54 c0 0.1 -0.08 0.18 -0.18 0.18 l-2.22 0 c-0.08 0 -0.14 -0.08 -0.14 -0.18 l0 -12.84 c0 -0.1 0.06 -0.18 0.14 -0.18 l2.8 0 c0.08 0 0.16 0.06 0.18 0.12 l2.42 8.1 l2.66 -8.1 c0 -0.06 0.06 -0.12 0.14 -0.12 l2.7 0 z M298.2475 18.78 c0 0.14 0.26 0.18 0.26 0 l0 -10.78 c0 -0.04 -0.06 -0.1 -0.12 -0.1 l-0.94 0 c-0.08 0 -0.1 0.06 -0.14 0.1 l-3.32 9.9 l-3.3 -9.92 c0 -0.06 -0.04 -0.08 -0.1 -0.08 l-0.98 0 c-0.06 0 -0.12 0.06 -0.12 0.12 l0 10.76 c0 0.14 0.26 0.18 0.26 0 l0 -10.62 l0.74 0 l3.38 10.16 c0.08 0.14 0.14 0.1 0.24 0 l3.4 -10.16 l0.74 0 l0 10.62 z M308.891 6.619999999999999 c1.72 0 2.92 0.38 3.68 1.2 c0.6 0.66 0.88 1.6 0.88 2.94 l0 5.26 c0 1.38 -0.28 2.34 -0.88 2.98 c-0.78 0.8 -1.96 1.2 -3.68 1.2 c-1.78 0 -2.94 -0.4 -3.7 -1.2 c-0.58 -0.64 -0.9 -1.6 -0.9 -2.98 l0 -5.26 c0 -1.34 0.32 -2.28 0.9 -2.96 c0.78 -0.8 1.96 -1.18 3.7 -1.18 z M310.791 15.42 l0 -4 c0 -1.76 -0.94 -2.12 -1.8 -2.12 l-0.24 0 c-1.28 0 -1.78 0.82 -1.78 2.12 l0 4 c0 1.76 0.94 2.14 1.78 2.14 l0.24 0 c1.28 0 1.78 -0.86 1.8 -2.14 z M305.551 10.9 l0 4.96 c0 0.94 0.24 1.72 0.8 2.3 c0.52 0.52 1.32 0.8 2.3 0.8 l0.52 0 c1.88 0 3.1 -1.2 3.1 -3.1 l0 -4.96 c0 -2.04 -1.08 -3.14 -3.1 -3.14 l-0.52 0 c-2.04 0 -3.1 1.1 -3.1 3.14 z M309.171 18.7 l-0.52 0 c-0.94 0 -1.64 -0.24 -2.14 -0.74 s-0.76 -1.2 -0.76 -2.1 l0 -4.96 c0 -1.9 1.02 -2.9 2.9 -2.9 l0.52 0 c1.9 0 2.84 0.98 2.84 2.9 l0 4.96 c0 0.84 -0.26 1.6 -0.8 2.12 c-0.52 0.44 -1.22 0.72 -2.04 0.72 z M325.5745 14.780000000000001 c-0.28 0.58 -0.68 1.02 -1.24 1.28 l1.68 3.7 c0.06 0.12 -0.02 0.24 -0.14 0.24 l-2.46 0 c-0.08 0 -0.12 -0.04 -0.14 -0.1 l-1.56 -3.4 l-1.02 0 l0 3.32 c0 0.1 -0.08 0.18 -0.18 0.18 l-2.3 0 c-0.08 0 -0.14 -0.08 -0.14 -0.18 l0 -12.84 c0 -0.1 0.06 -0.18 0.14 -0.18 l4.16 0 c2.22 0 3.56 1.26 3.56 3.6 l0 2.52 c0 0.7 -0.12 1.36 -0.36 1.86 z M323.3145 12.3 l0 -1.3 c0 -1.4 -0.52 -1.54 -2.04 -1.54 l-0.58 0 l0 4.42 l0.58 0 c1.26 0 2 -0.02 2.04 -1.58 z M319.5345 18.78 l0 -3.42 l2.88 0 l1.68 3.46 c0.04 0.1 0.28 0.06 0.22 -0.12 l-1.68 -3.4 c1.56 -0.22 2.1 -1.04 2.1 -2.52 l0 -2.5 c0 -2.2 -2 -2.38 -2.62 -2.38 l-2.7 0 c-0.04 0 -0.12 0.06 -0.12 0.12 l0 10.76 c0 0.14 0.24 0.14 0.24 0 z M324.4945 10.28 l0 2.5 c0 2.04 -1.3 2.32 -2.56 2.32 l-2.4 0 l0 -6.94 l2.58 0 c2.16 0 2.38 1.46 2.38 2.12 z M332.098 6.9 l1.74 3.36 l1.7 -3.36 c0.06 -0.1 0.08 -0.1 0.16 -0.1 l2.24 0 c0.12 0 0.2 0.12 0.16 0.22 l-2.9 6.74 l0 6.06 c0 0.1 -0.08 0.18 -0.18 0.18 l-2.36 0 c-0.06 0 -0.14 -0.08 -0.14 -0.18 l0 -6.06 l-2.98 -6.7 c-0.04 -0.14 0.02 -0.26 0.16 -0.26 l2.24 0 c0.08 0 0.1 0 0.16 0.1 z M333.93800000000005 13.3 l2.5 -5.2 c0.06 -0.12 -0.14 -0.22 -0.22 -0.08 l-2.38 4.98 l-2.44 -4.98 c-0.08 -0.14 -0.3 -0.04 -0.24 0.1 l2.56 5.18 l0 5.52 c0 0.14 0.22 0.16 0.22 0 l0 -5.52 z M342.98150000000004 20.18 c-0.94 0 -1.74 -0.8 -1.74 -1.78 s0.8 -1.74 1.74 -1.74 c0.98 0 1.8 0.76 1.8 1.74 s-0.82 1.78 -1.8 1.78 z M343.0015 19 c0.3 0 0.54 -0.22 0.54 -0.52 s-0.24 -0.52 -0.54 -0.52 s-0.52 0.22 -0.52 0.52 s0.22 0.52 0.52 0.52 z M343.0015 18.2 c0.16 0 0.28 0.12 0.28 0.28 c0 0.18 -0.12 0.3 -0.28 0.3 s-0.3 -0.12 -0.3 -0.3 c0 -0.16 0.14 -0.28 0.3 -0.28 z"></path></g></svg>
