<svg width="300" height="225" viewBox="0 0 225 300">
  <defs id="SvgjsDefs9242"></defs>
  <g id="SvgjsG9244" featurekey="symbolFeature-0"
    transform="matrix(1.5908773680778279,0,0,1.5908773680778279,145.45752891786304,27.512965290588312)" fill="#f9f8e6">
    <path xmlns="http://www.w3.org/2000/svg"
      d="M92.979,62.846c-0.122-0.178-0.307-0.447-0.329-0.536c-0.059-0.492,0.054-0.662,0.356-1.117  c0.459-0.69,1.153-1.732,0.7-3.615c-0.532-2.211-2.01-2.734-2.894-3.047c-0.541-0.191-0.642-0.247-0.72-0.397  c-0.087-0.166,0.013-0.515,0.187-1.07c0.324-1.033,0.813-2.594-0.338-4.3c-0.852-1.263-2.278-1.381-3.222-1.46  c-0.375-0.031-1.003-0.083-1.08-0.209c-0.157-0.257-0.13-0.662-0.072-1.301c0.093-1.037,0.221-2.458-0.892-3.821  c-1.183-1.448-2.911-1.398-4.181-1.363c-0.646,0.019-1.378,0.04-1.619-0.165c-0.154-0.129-0.197-0.533-0.246-1.135  c-0.089-1.103-0.238-2.948-2.227-4.032c-1.718-0.935-3.075-0.331-3.975,0.069c-0.75,0.333-1.108,0.472-1.722,0.265  c-0.155-0.052-0.311-0.403-0.53-0.933c-0.421-1.016-1.059-2.552-3.027-3.216c-2.126-0.716-3.616,0.437-4.603,1.2  c-0.429,0.332-0.91,0.699-1.154,0.679c-0.253-0.03-0.722-0.744-1.033-1.215c-0.678-1.03-1.606-2.44-3.342-2.634  c-1.804-0.199-2.864,0.966-3.567,1.738c-0.55,0.605-0.77,0.805-1.014,0.795c-0.214-0.008-0.368-0.146-0.867-0.775  c-0.651-0.821-1.633-2.027-3.595-2.03c-1.943,0.032-2.896,1.273-3.527,2.095c-0.503,0.656-0.684,0.838-0.992,0.873  c-0.284,0.031-0.438-0.064-1.041-0.634c-0.711-0.671-1.781-1.683-3.587-1.396c-1.752,0.283-2.752,1.579-3.556,2.62  c-0.369,0.477-0.827,1.071-1.114,1.167c-0.211,0.07-0.836-0.208-1.291-0.41c-1.033-0.458-2.447-1.085-4.019-0.468  c-1.735,0.681-2.229,2.263-2.59,3.417c-0.176,0.562-0.357,1.143-0.544,1.327c-0.2,0.05-0.849-0.136-1.236-0.246  c-1.083-0.31-2.567-0.733-3.857,0.186c-1.257,0.898-1.43,2.271-1.557,3.273c-0.094,0.744-0.165,1.213-0.44,1.473  c-0.269,0.253-0.646,0.299-1.345,0.365c-0.995,0.093-2.358,0.221-3.433,1.519c-1.13,1.364-1.043,3.172-0.974,4.625  c0.023,0.489,0.058,1.21-0.012,1.492c-0.165,0.099-0.58,0.228-0.863,0.315c-1.024,0.317-2.573,0.795-3.295,2.426  c-0.709,1.599-0.283,3.347,0.028,4.624c0.087,0.357,0.214,0.877,0.232,1.107c-0.12,0.148-0.384,0.398-0.585,0.588  c-0.943,0.891-2.522,2.383-2.366,4.792c0.406,6.243,6.863,6.243,17.56,6.243c1.362,0,4.072,0.022,7.635,0.05  c6.713,0.054,16.763,0.135,26.482,0.135c7.121,0,14.065-0.043,19.387-0.172c14.307-0.347,16.457-1.247,16.886-4.391  C94.18,64.597,93.458,63.543,92.979,62.846z M90.987,65.811c-0.011,0.083-0.041,0.302-0.06,0.347  c-0.438,0.518-3.209,1.19-13.925,1.45c-12.539,0.304-34.158,0.129-45.772,0.037c-3.574-0.029-6.292-0.051-7.659-0.051  c-11.459,0-14.369-0.405-14.566-3.437c0,0,0,0,0,0c-0.061-0.933,0.527-1.563,1.432-2.417c0.635-0.6,1.291-1.22,1.468-2.108  c0.155-0.773-0.047-1.602-0.261-2.479c-0.232-0.953-0.496-2.032-0.201-2.697c0.153-0.346,0.577-0.509,1.439-0.776  c0.941-0.291,2.112-0.652,2.674-1.846c0.413-0.877,0.364-1.894,0.312-2.971c-0.045-0.935-0.101-2.099,0.287-2.566  c0.259-0.313,0.572-0.368,1.402-0.445c0.883-0.083,2.093-0.196,3.125-1.171c1.072-1.012,1.237-2.323,1.357-3.28  c0.082-0.647,0.148-1.081,0.307-1.197c0.027-0.009,0.064-0.013,0.109-0.013c0.282,0,0.864,0.166,1.197,0.261  c1.14,0.325,2.701,0.772,3.979-0.35c0.88-0.772,1.218-1.852,1.489-2.72c0.296-0.949,0.464-1.379,0.823-1.52  c0.378-0.148,0.897,0.058,1.705,0.417c0.956,0.423,2.144,0.952,3.457,0.513c1.154-0.384,1.89-1.338,2.54-2.18  c0.555-0.719,1.079-1.397,1.66-1.491c0.275-0.044,0.405,0.007,1.049,0.615c0.685,0.646,1.719,1.624,3.431,1.434  c1.623-0.18,2.442-1.248,3.041-2.028c0.559-0.729,0.75-0.915,1.196-0.921c0.418-0.012,0.625,0.174,1.195,0.894  c0.583,0.736,1.464,1.847,3.103,1.91c1.673,0.044,2.683-1.042,3.349-1.775c0.597-0.657,0.789-0.806,1.014-0.775  c0.337,0.038,0.78,0.709,1.17,1.302c0.688,1.046,1.545,2.348,3.181,2.544c1.467,0.175,2.508-0.635,3.348-1.286  c0.948-0.734,1.28-0.906,1.808-0.729c0.649,0.219,0.853,0.649,1.215,1.522c0.374,0.901,0.886,2.135,2.343,2.626  c1.751,0.591,3.044,0.014,3.9-0.368c0.81-0.361,0.945-0.378,1.319-0.175c0.512,0.279,0.585,0.56,0.672,1.639  c0.077,0.946,0.182,2.242,1.304,3.188c1.116,0.94,2.514,0.901,3.637,0.868c0.92-0.026,1.54-0.022,1.771,0.262  c0.311,0.38,0.309,0.756,0.228,1.655c-0.081,0.897-0.181,2.015,0.498,3.13c0.87,1.428,2.389,1.555,3.394,1.639  c0.325,0.027,0.868,0.072,0.984,0.149c0.317,0.469,0.25,0.806-0.038,1.725c-0.275,0.877-0.651,2.079,0.019,3.359  c0.638,1.217,1.684,1.587,2.376,1.833c0.685,0.243,0.827,0.293,0.978,0.922c0.147,0.608,0.057,0.745-0.28,1.25  c-0.41,0.616-1.029,1.546-0.838,3.136c0.096,0.8,0.504,1.396,0.833,1.875C90.91,65.132,91.046,65.378,90.987,65.811z">
    </path>
    <path xmlns="http://www.w3.org/2000/svg"
      d="M46.482,36.162c-11.458,0.7-21.222,5.823-28.239,14.814c-0.51,0.653-0.393,1.596,0.26,2.105  c0.654,0.51,1.596,0.393,2.105-0.26c6.564-8.413,15.331-13.011,26.056-13.666c12.376-0.748,26.11,4.304,31.958,11.769  c5.357,6.839,5.359,9.731,5.232,10.454c-0.046,0.263-0.128,0.365-0.172,0.381c-1.405,0.109-49.387,0.594-66.917-0.647  c-0.827-0.07-1.544,0.564-1.602,1.39c-0.059,0.826,0.564,1.544,1.39,1.602c9.521,0.674,27.91,0.86,43.085,0.86  c12.73,0,23.2-0.131,24.274-0.213c1.151-0.089,2.127-0.799,2.612-1.9c0.862-1.957,0.6-5.936-5.542-13.776  C74.478,40.769,59.963,35.34,46.482,36.162z">
    </path>
  </g>
</svg>
