<svg width="110" height="32" xmlns="http://www.w3.org/2000/svg"><g fill="#FF8000" fill-rule="evenodd"><path d="M15.117 2.298a1.503 1.503 0 011.796 0 56.974 56.974 0 013.992 2.78s.3.199.4-.199a4.08 4.08 0 01.1-1.489.748.748 0 01.698-.496s1.497.099 2.495.198a.995.995 0 01.798.894s.599 4.17.798 5.66c.21.787.622 1.506 1.198 2.084a41.683 41.683 0 012.495 3.774s.499 1.092-.599 1.191c0 0-2.096.199-2.295.298a.557.557 0 00-.5.596s-.099 7.248-.598 10.822c0 0-.1 1.39-.898 1.39 0 0-2.096-.099-2.595-.099 0 0-.2 0-.2-.298 0 0 1.098-11.319.4-17.078a.993.993 0 00-.6-.893s-.498-.199-.997.496a17.9 17.9 0 00-3.393 10.227c-.065.767.003 1.54.2 2.284 0 0 .2.298 1.097.397l1.098.198s.2 0 .2.298c0 0-.3 3.376-.3 3.972.015.14-.02.28-.1.397a.581.581 0 01-.399.1H13.92a.49.49 0 01-.299-.1c-.1-.198-.3-4.27-.3-4.865 0-.1.1-.199.2-.298a2.977 2.977 0 001.397-2.184 7.755 7.755 0 000-1.887s.2-6.355.2-7.447c0 0 .1-.298-.4-.397a.38.38 0 00-.498.298s-.3 4.27-.3 5.858c0 0 .1 1.092-.598 1.092 0 0-.699.1-.799-.794 0 0 .1-4.07.2-6.156a.428.428 0 00-.4-.397c-.199-.1-.498.1-.498.397 0 0-.3 3.972-.3 5.957 0 0 .1.993-.698.993 0 0-.699.1-.699-.794 0 0 .2-5.66.2-6.057a.457.457 0 00-.4-.496h-.1c-.199 0-.498.1-.498.397v.1s-.32 6.751-.32 8.737a3.599 3.599 0 001.497 2.88c.114.057.19.17.2.297 0 0 .2 3.575.3 4.766 0 0 .1.298-.2.298l-3.793-.199s-.598.1-.798-.695a93.854 93.854 0 01-.698-11.418.557.557 0 00-.5-.596s-1.896-.198-2.395-.298a.824.824 0 01-.598-.993c0-.099.1-.099.1-.198A41.024 41.024 0 0115.116 2.298z"/><g fill-rule="nonzero"><path d="M92.62 16.7a4.51 4.51 0 00-1.4-1 5.85 5.85 0 00-1.9-.4 5.22 5.22 0 00-2.1.4 5.85 5.85 0 00-1.7 1 3.55 3.55 0 00-1.1 1.6 6.36 6.36 0 000 4.7 9.06 9.06 0 001.1 1.6 4.25 4.25 0 001.7 1 7.79 7.79 0 002.1.4 5.93 5.93 0 002.3-.5 4.92 4.92 0 001.5-1 .64.64 0 000-.6l-1.3-1-.1-.1c-.2-.1-.4-.1-.5.1l-.6.6a2.66 2.66 0 01-1.2.3 3 3 0 01-1.5-.5 3.81 3.81 0 01-.8-1.7.22.22 0 01.2-.2h6.3a.46.46 0 00.4-.5v-.5a7.61 7.61 0 00-.3-2.1 11.07 11.07 0 00-1.1-1.6zm-2 2.5h-3.4A.22.22 0 0187 19c0-.2.1-.3.1-.5a1.84 1.84 0 011-1 2.92 2.92 0 01.9-.2 1.9 1.9 0 011.3.5c.303.288.482.682.5 1.1.02.2-.08.3-.18.3zM62.82 20.2a6.12 6.12 0 00-1.2-.5l-1.2-.3-.9-.3a.66.66 0 01-.4-.5.6.6 0 01.3-.6 1.85 1.85 0 01.7-.2 2.39 2.39 0 011.4.5c.188.1.412.1.6 0l1.2-1.3a.64.64 0 000-.6 5.67 5.67 0 00-1.3-.8 5.82 5.82 0 00-1.9-.3 7.72 7.72 0 00-1.5.2 3.1 3.1 0 00-1.3.6 2.84 2.84 0 00-.9 1 2.7 2.7 0 00-.3 1.5 2.82 2.82 0 00.4 1.5 2 2 0 00.9.9 6.12 6.12 0 001.2.5l1.2.3.9.3a.65.65 0 010 1.2 1.41 1.41 0 01-.9.1 2.27 2.27 0 01-1.8-.8.64.64 0 00-.6 0l-1.2 1.6c-.1.2-.1.5.1.6a6.38 6.38 0 001.4.8 6.93 6.93 0 002 .3 7.57 7.57 0 001.5-.1 5.78 5.78 0 001.4-.5 2.41 2.41 0 001-1 2.93 2.93 0 00.4-1.6 2.82 2.82 0 00-.4-1.5 1.37 1.37 0 00-.8-1zM44.12 13.4a7.74 7.74 0 00-1.6-.7 11 11 0 00-1.8-.2h-4a.43.43 0 00-.4.4v12.4a.43.43 0 00.4.4h2.1a.43.43 0 00.4-.4v-4.5a.22.22 0 01.2-.2h1.4a11 11 0 001.8-.2 3.29 3.29 0 001.6-.7 3.25 3.25 0 001-1.3 4.33 4.33 0 00.4-1.9 4.06 4.06 0 00-.4-1.9 4.26 4.26 0 00-1.1-1.2zm-1.7 3.9a1.21 1.21 0 01-.5.5c-.2.1-.3.2-.5.2s-.5.1-.8.1h-1.2a.22.22 0 01-.2-.2v-2.7a.22.22 0 01.2-.2H41c.244.02.482.088.7.2.224.136.426.305.6.5.17.23.242.517.2.8.08.267.05.554-.08.8zM72.72 23.4h-4.5a.1.1 0 01-.1-.1v-.1h.1l4.3-4.1.2-.2a.91.91 0 00.3-.7v-2c0-.2-.2-.5-.4-.5h-7.4a.66.66 0 00-.5.4v1.5a.46.46 0 00.5.4h4.1c.1 0 .1.1.1.2v.1l-3.8 3.7-.5.5-.1.1c-.2.1-.2.3-.3.6v2.2a.43.43 0 00.4.4h7.7a.54.54 0 00.5-.5v-1.5a.68.68 0 00-.6-.4zM56.42 15.9c-.1-.2-.2-.3-.4-.3h-1.8a1 1 0 00-.8.5v.4l-1.6 5.2v.1c0 .1-.1.2-.2.1s-.2 0-.2-.1l-1.9-5.3v-.1l-.1-.4a.79.79 0 00-.8-.5h-2a.32.32 0 00-.3.3V16.1l3.8 9.3v.6l-.2.2a4.88 4.88 0 01-.3.7c-.1.2-.2.3-.3.5a1.68 1.68 0 01-1.3.4h-1.3a.43.43 0 00-.4.4v1.6a.43.43 0 00.4.4h1.7a5 5 0 001.7-.2 2.38 2.38 0 001.1-.6c.289-.29.525-.63.7-1 .2-.4.4-.8.6-1.3l4.1-11c-.2 0-.2-.1-.2-.2zM82.42 16.7a2.66 2.66 0 00-1.1-1 3.81 3.81 0 00-1.8-.3 3.4 3.4 0 00-1 .1 2 2 0 00-.8.4 2.65 2.65 0 00-.6.5c0 .1-.1.1-.2.2h-.1c-.1 0-.1-.1-.2-.1v-.4a.4.4 0 00-.5-.4h-1.9c-.2 0-.5.2-.5.4v9.3a.46.46 0 00.5.4h2.1a.66.66 0 00.5-.4v-5.8a2.35 2.35 0 01.2-.8 2.65 2.65 0 01.5-.6 2.92 2.92 0 01.9-.2 1.34 1.34 0 011.3.8c.113.253.181.524.2.8v5.8a.46.46 0 00.5.4h2.1a.66.66 0 00.5-.4V20a10.87 10.87 0 00-.1-1.8 3.33 3.33 0 00-.5-1.5zM109 11.5h-.7a.54.54 0 00-.5.5v13.4c0 .2.2.4.5.5h.7a.54.54 0 00.5-.5V12c-.08-.3-.28-.5-.5-.5zM95.12 23.7a1.14 1.14 0 00-.8.3 1.21 1.21 0 000 1.6 1.12 1.12 0 001.6 0 1.21 1.21 0 000-1.6 1.14 1.14 0 00-.8-.3zM105.22 16.9a3.59 3.59 0 00-1.4-1 4 4 0 00-3.4 0 8.34 8.34 0 00-1.2.8v-.8a.46.46 0 00-.5-.4H98a.43.43 0 00-.4.4v13.7a.43.43 0 00.4.4h.8a.43.43 0 00.4-.4v-4.8a2.4 2.4 0 001.2.7 4 4 0 003.4 0 4.51 4.51 0 001.4-1 4.62 4.62 0 00.9-1.5 8.33 8.33 0 00.3-2.2 10.07 10.07 0 00-.3-2.5 8 8 0 00-.88-1.4zm-.4 5.6a2.38 2.38 0 01-.6 1.1 2 2 0 01-.9.7c-.75.4-1.65.4-2.4 0a3.11 3.11 0 01-.9-.7 2.38 2.38 0 01-.6-1.1 8.75 8.75 0 01-.2-1.6 11 11 0 01.2-1.8A2.38 2.38 0 01100 18a2 2 0 01.9-.7c.75-.4 1.65-.4 2.4 0 .34.176.646.413.9.7.295.306.502.686.6 1.1a11 11 0 01.2 1.8 4.14 4.14 0 01-.18 1.6z"/></g></g></svg>
